# xmcd
#
# Track frame offsets:
#        150
#        19468
#        37074
#        54027
#        70892
#        88819
#        103157
#        121025
#        134407
#
# Disc length: 1979 seconds
#
# Revision: 0
# Processed by: cddbd v1.5.2PL0 Copyright (c) Steve Scherf et al.
# Submitted via: CDGFix 3.8d
#
DISCID=7a07b909
DTITLE=Various Artist - SSC448
DYEAR=1900
DGENRE=Karaoke
TTITLE0=Dan and Shay - From The Ground Up
TTITLE1=Brad/Paisley and Demi Lovato - Without A Fight
TTITLE2=Sam Hunt - Make You Miss Me
TTITLE3=Kenny Chesney and Pink - Setting The World On Fire
TTITLE4=Keith Urban - Wasted Time
TTITLE5=Blake Shelton - She's Got A Way With Words
TTITLE6=Miranda Lambert - Vice
TTITLE7=Eric Church - Record Year
TTITLE8=Justin Moore - You Look Like I Need A Drink
EXTD=
EXTT0=
EXTT1=
EXTT2=
EXTT3=
EXTT4=
EXTT5=
EXTT6=
EXTT7=
EXTT8=
PLAYORDER=
